<svg width="16" height="14" viewBox="0 0 16 14" fill="none" xmlns="http://www.w3.org/2000/svg">
<path d="M9.64931 11.5648L9.64888 11.5651C9.25368 11.8773 8.88908 12.1608 8.53427 12.3682C8.17933 12.5756 7.8696 12.6851 7.58717 12.6851C7.30482 12.6851 6.99513 12.5755 6.64006 12.368C6.28512 12.1605 5.92053 11.8772 5.52511 11.5656C5.30849 11.3948 5.08677 11.2238 4.86277 11.0511C3.91505 10.3205 2.92661 9.55848 2.11154 8.64077C1.11668 7.52062 0.410583 6.19831 0.410583 4.47919C0.410583 2.78331 1.3691 1.35121 2.69292 0.74618C3.99308 0.151966 5.71377 0.327965 7.31694 1.99419L7.58714 2.27502L7.85737 1.99422C9.46052 0.328373 11.1812 0.152521 12.4814 0.746832C13.8052 1.35196 14.7638 2.78407 14.7638 4.47995C14.7638 6.1987 14.0578 7.52102 13.0631 8.64105C12.2467 9.5603 11.2561 10.3233 10.3066 11.0547C10.0844 11.2259 9.86432 11.3954 9.64931 11.5648Z" stroke="#D80000" stroke-width="0.75"/>
</svg>
